<svg width="54" height="51" viewBox="0 0 54 51" fill="none" xmlns="http://www.w3.org/2000/svg">
<path d="M23.625 23.625C25.192 23.6248 26.7434 23.9364 28.1888 24.5416C29.6342 25.1468 30.9447 26.0335 32.044 27.1502C33.1434 28.2668 34.0096 29.591 34.5922 31.0457C35.1748 32.5003 35.4621 34.0563 35.4375 35.6231C35.4336 35.8825 35.4895 36.1394 35.6009 36.3737C35.7123 36.608 35.8763 36.8134 36.08 36.974C36.2837 37.1347 36.5218 37.2462 36.7756 37.2999C37.0294 37.3536 37.2922 37.348 37.5435 37.2836C38.2919 37.0919 39.0741 37.0737 39.8306 37.2302C40.5871 37.3868 41.2978 37.7141 41.9086 38.1872C42.5193 38.6602 43.0139 39.2665 43.3547 39.9598C43.6955 40.653 43.8735 41.415 43.875 42.1875C43.875 43.5302 43.3417 44.8178 42.3923 45.7672C41.4429 46.7166 40.1552 47.25 38.8125 47.25H10.125C9.22762 47.2449 8.34023 47.061 7.51477 46.7089C6.68931 46.3568 5.94235 45.8436 5.31758 45.1994C4.69281 44.5551 4.20277 43.7928 3.87614 42.9569C3.5495 42.1211 3.39282 41.2285 3.41526 40.3313C3.4377 39.4342 3.63881 38.5505 4.00682 37.732C4.37484 36.9136 4.90238 36.1767 5.55857 35.5645C6.21477 34.9523 6.98645 34.4771 7.82849 34.1667C8.67052 33.8563 9.56599 33.717 10.4625 33.7568C10.8514 33.7768 11.2352 33.6617 11.5489 33.431C11.8627 33.2004 12.0869 32.8683 12.1838 32.4911C12.8384 29.9542 14.3175 27.7067 16.3884 26.1018C18.4594 24.4969 21.005 23.6257 23.625 23.625ZM38.7214 33.75C38.3417 30.3282 36.8107 27.137 34.3793 24.6995C31.948 22.262 28.7606 20.7229 25.3398 20.3345C21.919 19.9461 18.4677 20.7315 15.5519 22.562C12.636 24.3924 10.4285 27.1592 9.2914 30.4088C6.6857 30.622 4.2635 31.835 2.53183 33.7937C0.800157 35.7524 -0.106739 38.305 0.000975776 40.9172C0.108691 43.5294 1.22267 45.9986 3.10972 47.8081C4.99677 49.6176 7.51061 50.627 10.125 50.625H38.8125C41.0503 50.625 43.1964 49.7361 44.7787 48.1537C46.3611 46.5714 47.25 44.4253 47.25 42.1875C47.25 39.9497 46.3611 37.8036 44.7787 36.2213C43.1964 34.639 41.0503 33.75 38.8125 33.75H38.7214Z" fill="white"/>
<path d="M35.4375 1.6875C35.4375 1.23995 35.2597 0.810725 34.9432 0.494257C34.6268 0.17779 34.1976 0 33.75 0C33.3025 0 32.8732 0.17779 32.5568 0.494257C32.2403 0.810725 32.0625 1.23995 32.0625 1.6875V5.0625C32.0625 5.51005 32.2403 5.93927 32.5568 6.25574C32.8732 6.57221 33.3025 6.75 33.75 6.75C34.1976 6.75 34.6268 6.57221 34.9432 6.25574C35.2597 5.93927 35.4375 5.51005 35.4375 5.0625V1.6875ZM48.0701 8.316C48.2313 8.16033 48.3599 7.97413 48.4483 7.76825C48.5367 7.56236 48.5833 7.34093 48.5852 7.11686C48.5872 6.8928 48.5445 6.67059 48.4596 6.4632C48.3748 6.25582 48.2495 6.0674 48.091 5.90896C47.9326 5.75051 47.7442 5.62521 47.5368 5.54036C47.3294 5.45551 47.1072 5.41282 46.8831 5.41477C46.6591 5.41671 46.4376 5.46326 46.2318 5.5517C46.0259 5.64014 45.8397 5.7687 45.684 5.92987L43.2945 8.316C42.9776 8.63287 42.7996 9.06263 42.7996 9.51075C42.7996 9.95887 42.9776 10.3886 43.2945 10.7055C43.6114 11.0224 44.0411 11.2004 44.4893 11.2004C44.9374 11.2004 45.3671 11.0224 45.684 10.7055L48.0701 8.316ZM21.816 5.92987C21.4977 5.62248 21.0715 5.45239 20.629 5.45624C20.1866 5.46008 19.7633 5.63755 19.4504 5.95043C19.1376 6.26331 18.9601 6.68655 18.9562 7.12901C18.9524 7.57147 19.1225 7.99773 19.4299 8.316L21.816 10.7055C21.9729 10.8624 22.1592 10.9869 22.3642 11.0718C22.5692 11.1567 22.7889 11.2004 23.0108 11.2004C23.2326 11.2004 23.4524 11.1567 23.6573 11.0718C23.8623 10.9869 24.0486 10.8624 24.2055 10.7055C24.3624 10.5486 24.4869 10.3623 24.5718 10.1573C24.6567 9.95235 24.7004 9.73264 24.7004 9.51075C24.7004 9.28887 24.6567 9.06915 24.5718 8.86416C24.4869 8.65916 24.3624 8.4729 24.2055 8.316L21.816 5.92987ZM27.6683 17.3171C28.0877 16.4479 28.6887 15.6787 29.4307 15.0614C30.1728 14.4442 31.0385 13.9932 31.9696 13.739C32.9007 13.4848 33.8755 13.4332 34.8282 13.5877C35.781 13.7423 36.6895 14.0993 37.4925 14.6348C38.2955 15.1703 38.9743 15.8718 39.4832 16.692C39.992 17.5121 40.3191 18.4319 40.4423 19.3892C40.5655 20.3464 40.4819 21.319 40.1973 22.2413C39.9126 23.1635 39.4335 24.014 38.7923 24.7354C39.4639 25.6838 40.0478 26.6996 40.5338 27.7661C41.6775 26.7327 42.5702 25.4518 43.1438 24.021C43.7174 22.5902 43.9567 21.0473 43.8435 19.51C43.7303 17.9726 43.2676 16.4815 42.4906 15.1501C41.7137 13.8187 40.643 12.6824 39.3602 11.8276C38.0774 10.9729 36.6164 10.4223 35.0885 10.2179C33.5606 10.0135 32.0062 10.1606 30.5439 10.6481C29.0815 11.1356 27.7497 11.9506 26.6501 13.0308C25.5505 14.1111 24.7121 15.4282 24.1988 16.8818C25.3868 16.9189 26.5478 17.0674 27.6683 17.3171ZM42.8018 31.0669C44.8268 31.7925 46.5986 33.0581 47.9385 34.6849C48.1222 34.5361 48.2727 34.3503 48.38 34.1397C48.4874 33.929 48.5493 33.6982 48.5617 33.462C48.5741 33.2259 48.5367 32.9899 48.4521 32.7691C48.3674 32.5484 48.2373 32.3479 48.0701 32.1806L45.684 29.7945C45.4434 29.5525 45.1352 29.3891 44.7998 29.3259C44.4645 29.2627 44.1179 29.3026 43.8057 29.4404C43.4936 29.5782 43.2305 29.8074 43.0513 30.0978C42.872 30.3882 42.785 30.7261 42.8018 31.0669ZM48.9375 18.5625C48.49 18.5625 48.0607 18.7403 47.7443 19.0568C47.4278 19.3732 47.25 19.8024 47.25 20.25C47.25 20.6976 47.4278 21.1268 47.7443 21.4432C48.0607 21.7597 48.49 21.9375 48.9375 21.9375H52.3125C52.7601 21.9375 53.1893 21.7597 53.5057 21.4432C53.8222 21.1268 54 20.6976 54 20.25C54 19.8024 53.8222 19.3732 53.5057 19.0568C53.1893 18.7403 52.7601 18.5625 52.3125 18.5625H48.9375Z" fill="white"/>
</svg>
