<svg width="86" height="86" viewBox="0 0 86 86" fill="none" xmlns="http://www.w3.org/2000/svg">
<path d="M42.5521 0C44.1917 0 45.5208 1.32915 45.5208 2.96875V6.92708C45.5208 8.56668 44.1917 9.89583 42.5521 9.89583C40.9125 9.89583 39.5833 8.56668 39.5833 6.92708V2.96875C39.5833 1.32915 40.9125 0 42.5521 0Z" fill="white"/>
<path fill-rule="evenodd" clip-rule="evenodd" d="M19.7917 42.5521C19.7917 29.9819 29.9819 19.7917 42.5521 19.7917C55.1223 19.7917 65.3125 29.9819 65.3125 42.5521C65.3125 55.1223 55.1223 65.3125 42.5521 65.3125C29.9819 65.3125 19.7917 55.1223 19.7917 42.5521ZM42.5521 25.7292C33.261 25.7292 25.7292 33.261 25.7292 42.5521C25.7292 51.8431 33.261 59.375 42.5521 59.375C51.8431 59.375 59.375 51.8431 59.375 42.5521C59.375 33.261 51.8431 25.7292 42.5521 25.7292Z" fill="white"/>
<path d="M16.6617 12.4633C15.5023 11.3039 13.6226 11.3039 12.4633 12.4633C11.3039 13.6227 11.3039 15.5024 12.4633 16.6618L15.2622 19.4607C16.4216 20.6201 18.3013 20.6201 19.4607 19.4607C20.6201 18.3013 20.6201 16.4216 19.4607 15.2623L16.6617 12.4633Z" fill="white"/>
<path d="M85.1042 42.5521C85.1042 44.1917 83.775 45.5208 82.1354 45.5208H78.1771C76.5375 45.5208 75.2083 44.1917 75.2083 42.5521C75.2083 40.9125 76.5375 39.5833 78.1771 39.5833H82.1354C83.775 39.5833 85.1042 40.9125 85.1042 42.5521Z" fill="white"/>
<path d="M72.6409 16.6617C73.8002 15.5023 73.8002 13.6226 72.6409 12.4633C71.4815 11.3039 69.6018 11.3039 68.4424 12.4633L65.6434 15.2622C64.4841 16.4216 64.4841 18.3013 65.6434 19.4607C66.8028 20.6201 68.6825 20.6201 69.8419 19.4607L72.6409 16.6617Z" fill="white"/>
<path d="M42.5521 75.2083C44.1917 75.2083 45.5208 76.5375 45.5208 78.1771V82.1354C45.5208 83.775 44.1917 85.1042 42.5521 85.1042C40.9125 85.1042 39.5833 83.775 39.5833 82.1354V78.1771C39.5833 76.5375 40.9125 75.2083 42.5521 75.2083Z" fill="white"/>
<path d="M69.8422 65.6435C68.6828 64.4841 66.8031 64.4841 65.6437 65.6435C64.4843 66.8029 64.4843 68.6826 65.6437 69.842L68.4427 72.6409C69.602 73.8003 71.4818 73.8003 72.6411 72.6409C73.8005 71.4815 73.8005 69.6018 72.6411 68.4425L69.8422 65.6435Z" fill="white"/>
<path d="M9.89583 42.5521C9.89583 44.1917 8.56668 45.5208 6.92708 45.5208H2.96875C1.32915 45.5208 0 44.1917 0 42.5521C0 40.9125 1.32915 39.5833 2.96875 39.5833H6.92708C8.56668 39.5833 9.89583 40.9125 9.89583 42.5521Z" fill="white"/>
<path d="M19.4604 69.8419C20.6198 68.6825 20.6198 66.8028 19.4604 65.6435C18.301 64.4841 16.4213 64.4841 15.262 65.6435L12.463 68.4424C11.3036 69.6018 11.3036 71.4815 12.463 72.6409C13.6224 73.8002 15.5021 73.8002 16.6615 72.6409L19.4604 69.8419Z" fill="white"/>
</svg>
