<svg width="55" height="55" viewBox="0 0 55 55" fill="none" xmlns="http://www.w3.org/2000/svg">
<path d="M27.5 2.86456C28.4492 2.86456 29.2187 3.63407 29.2187 4.58331V6.87498C29.2187 7.82422 28.4492 8.59373 27.5 8.59373C26.5507 8.59373 25.7812 7.82422 25.7812 6.87498V4.58331C25.7812 3.63407 26.5507 2.86456 27.5 2.86456Z" fill="black"/>
<path fill-rule="evenodd" clip-rule="evenodd" d="M14.3229 27.5C14.3229 20.2225 20.2225 14.3229 27.5 14.3229C34.7775 14.3229 40.6771 20.2225 40.6771 27.5C40.6771 34.7775 34.7775 40.6771 27.5 40.6771C20.2225 40.6771 14.3229 34.7775 14.3229 27.5ZM27.5 17.7604C22.121 17.7604 17.7604 22.121 17.7604 27.5C17.7604 32.879 22.121 37.2396 27.5 37.2396C32.879 37.2396 37.2396 32.879 37.2396 27.5C37.2396 22.121 32.879 17.7604 27.5 17.7604Z" fill="black"/>
<path d="M12.5108 10.0802C11.8396 9.40895 10.7514 9.40895 10.0801 10.0802C9.40893 10.7514 9.40893 11.8396 10.0801 12.5108L11.7006 14.1313C12.3718 14.8025 13.4601 14.8025 14.1313 14.1313C14.8025 13.4601 14.8025 12.3718 14.1313 11.7006L12.5108 10.0802Z" fill="black"/>
<path d="M52.1354 27.5C52.1354 28.4492 51.3659 29.2187 50.4166 29.2187H48.125C47.1757 29.2187 46.4062 28.4492 46.4062 27.5C46.4062 26.5507 47.1757 25.7812 48.125 25.7812H50.4166C51.3659 25.7812 52.1354 26.5507 52.1354 27.5Z" fill="black"/>
<path d="M44.9198 12.5108C45.591 11.8396 45.591 10.7514 44.9198 10.0801C44.2486 9.40893 43.1603 9.40893 42.4891 10.0801L40.8687 11.7006C40.1974 12.3718 40.1974 13.4601 40.8687 14.1313C41.5399 14.8025 42.6281 14.8025 43.2993 14.1313L44.9198 12.5108Z" fill="black"/>
<path d="M27.5 46.4062C28.4492 46.4062 29.2187 47.1757 29.2187 48.125V50.4166C29.2187 51.3659 28.4492 52.1354 27.5 52.1354C26.5507 52.1354 25.7812 51.3659 25.7812 50.4166V48.125C25.7812 47.1757 26.5507 46.4062 27.5 46.4062Z" fill="black"/>
<path d="M43.2995 40.8687C42.6283 40.1975 41.54 40.1975 40.8688 40.8687C40.1976 41.5399 40.1976 42.6282 40.8688 43.2994L42.4893 44.9198C43.1605 45.591 44.2487 45.591 44.9199 44.9198C45.5912 44.2486 45.5912 43.1604 44.9199 42.4891L43.2995 40.8687Z" fill="black"/>
<path d="M8.59373 27.5C8.59373 28.4492 7.82422 29.2187 6.87498 29.2187H4.58331C3.63407 29.2187 2.86456 28.4492 2.86456 27.5C2.86456 26.5507 3.63407 25.7812 4.58331 25.7812H6.87498C7.82422 25.7812 8.59373 26.5507 8.59373 27.5Z" fill="black"/>
<path d="M14.1311 43.2994C14.8023 42.6281 14.8023 41.5399 14.1311 40.8687C13.4599 40.1975 12.3717 40.1975 11.7004 40.8687L10.08 42.4891C9.40877 43.1603 9.40877 44.2486 10.08 44.9198C10.7512 45.591 11.8395 45.591 12.5107 44.9198L14.1311 43.2994Z" fill="black"/>
</svg>
